<svg xmlns="http://www.w3.org/2000/svg" viewBox="0 0 512 512"><defs><style>.cls-1{fill:#3e2945;}.cls-2{opacity:0.21;}.cls-3{fill:#3f3f44;}.cls-4,.cls-8{fill:#f7bf9a;}.cls-5{opacity:0.63;}.cls-6{fill:#f2a88f;}.cls-7{fill:#fed9be;}.cls-8{fill-rule:evenodd;}.cls-9{fill:#f79820;}.cls-10{fill:#90278e;}.cls-11{fill:#f88f1c;}.cls-12{fill:#f9ac67;}.cls-13{fill:#f79c41;}.cls-14{fill:#8e3d7c;}.cls-15{fill:#d49f77;}.cls-16{fill:#fff;}.cls-17{fill:#f2f2f2;}.cls-18{fill:#543966;}.cls-19{opacity:0.35;}.cls-20{fill:#2a1d30;}.cls-21{fill:#f15a24;}.cls-22{fill:#f7931e;}.cls-23{fill:#fcee21;}.cls-24{fill:none;stroke:#543966;stroke-linecap:round;stroke-linejoin:round;stroke-width:6.56px;}</style></defs><title>cave, man, emoticon, emoji, sticker, thinking, fire</title><g id="social_media" data-name="social media"><g id="fire"><g id="HUH"><path class="cls-1" d="M87.54,197.17c1.66-16.83,30.05-30.63,30.05-30.63s-17.66,10.14-22,4.29,3.36-15.43,28.39-24c0,0-12.87-7.33-10.92-15.33S152.72,133,152.72,133s-16-16.13-7.25-17.47,27.21,7.95,27.21,7.95-14.79-6.73-12.69-13.56,30.56,9.62,30.56,9.62-13.35-19.85-1.29-18.07C197,102.62,208,118.86,208,118.86s-11.25-27-.07-27.19,12.24,26.61,12.24,26.61,7.36-27.09,14.37-24.81-6.57,24.81-6.57,24.81,38.17-30.12,44.53-19.34-16.66,17.92-19,19,30.07-10.26,33.58-.89-12.86,13.72-18.54,15.58c0,0,40.86-5.69,42.8,3.34s-21.79,8.94-26.43,8.67c0,0,33.39,10.65,32.1,17.69s-9.11,3.37-21.83.77c0,0,21.76,8.47,21.41,18.22s-23.56-.58-23.56-.58,20.87,6.27,23.84,15.73S291,214.69,291,214.69H119.7S85.87,214,87.54,197.17Z"/><g class="cls-2"><ellipse class="cls-3" cx="203.78" cy="487.98" rx="81.21" ry="8.02"/></g><path class="cls-4" d="M234.29,455.68s-.76,28.81,7.81,30.36,28.22,5.44,31.5,0-2.88-17.83-21.06-21S234.29,455.68,234.29,455.68Z"/><path class="cls-4" d="M247.94,486.23c2.78.41,10.16-21.25,15.94-46.55h-38C238.65,453.73,236.26,484.52,247.94,486.23Z"/><path class="cls-4" d="M172.42,456.37s.76,28.81-7.81,30.36-28.22,5.44-31.5,0,2.88-17.83,21.06-21S172.42,456.37,172.42,456.37Z"/><path class="cls-4" d="M158.94,486.92c-2.78.41-10.16-21.25-15.94-46.55h38C168.23,454.42,170.63,485.21,158.94,486.92Z"/><g class="cls-5"><polygon class="cls-6" points="235.28 459.73 251.33 450.25 259.8 456.02 263.49 445.98 247.19 442.1 232.75 453.29 235.28 459.73"/></g><g class="cls-5"><polygon class="cls-6" points="146.28 453.45 149.96 449.72 164.04 457.24 174.51 450.51 177.34 444.46 145.39 444.46 144.66 447.43 146.28 453.45"/></g><path class="cls-4" d="M339.27,306.3A10.53,10.53,0,0,1,328.48,296l-.19-7.57a10.53,10.53,0,0,1,10.25-10.79h0a10.52,10.52,0,0,1,10.79,10.25l.19,7.58a10.53,10.53,0,0,1-10.26,10.79Z"/><path class="cls-4" d="M256.57,318.12l-19.78-4.21-67.27,0-19.7,4.17c-12.08,3.57-20.77,19.23-20.77,37.42l3.3,61.93c21.1,25.11,119.81,24.14,139.34-3.41l5.65-58.51c0-18.19-8.69-33.86-20.77-37.43Zm0,0"/><path class="cls-7" d="M271.68,414.05l5.65-58.51c0-18.19-8.69-33.86-20.77-37.43h0l-19.78-4.21-67.27,0-19.7,4.17,78.63,20.18,43.23,75.75m-15.11-97"/><path class="cls-8" d="M236.42,323.94c3.83-.54,15.3-2.89,15.3-2.89s80.69-37.86,88.4-23.68S252,354.59,250.61,352.3,236.42,323.94,236.42,323.94Z"/><ellipse class="cls-9" cx="231.57" cy="342.33" rx="6.72" ry="5.1" transform="translate(-161.23 213.79) rotate(-37.8)"/><path class="cls-10" d="M196.15,425.35c-5.42-2.16-14.42-4.88-11.69-7.05,2.49-2,10.65-9.07,16.6-14.26,3.78-3.29,9.69-4.06,13.71-1.65,3.12,1.86,6.83,4.11,10.19,6.22,7.71,4.82,2.21,9.6,2.21,9.6l-4,2-13.19,4S201.76,427.58,196.15,425.35Z"/><path class="cls-11" d="M159.16,402.25c-9.65,2-18.88,5.57-28.49,7.23,1,12.92,2.87,31.13,6.57,43.66l10.94-7.66L165.07,453l15.55-11,3.3,2.43-19.29-43.29C162.8,401.51,161,401.87,159.16,402.25Z"/><path class="cls-12" d="M267.63,393.72c-.54-.41-1-.84-1.56-1.27a2.15,2.15,0,0,1-.91-.8A45,45,0,0,1,251.39,371c-5.17-15.79-4.59-32.79-8.13-48.91a2,2,0,0,1,.59-2c-.24-1.65-.47-3.3-.72-4.95a51.34,51.34,0,0,0-10.32-1.38,2.06,2.06,0,0,1-.19,1.22c-1.25,2.48-2.46,5-3.67,7.47-2.15,13.19-10.11,40-10.69,40.14-.08,0-.15.09-.23.13l55.67,42.63c.17-1.81.31-3.52.43-5.15A13.68,13.68,0,0,1,267.63,393.72Z"/><path class="cls-11" d="M267.26,452.25l-1.18.44,1,.47Z"/><path class="cls-13" d="M218,362.8c-3.1,1.3-26.15,22.9-27.28,23.73-8.55,6.28-16,12.68-26.12,14.63l19.29,43.29,12.26,9,16.66-8.5,20,12.25,17.33-11.75,15.92,7.19,1.18-.44c.81-4.9,4.78-29.35,6.44-46.81Z"/><path class="cls-10" d="M251.39,371a86.29,86.29,0,0,1-2.67-10.7l-5.25,2.27c-3.69,1.59-5.25,4.74-3.47,7l0,0c1.78,2.26,7.24,4.11,12.12,4.11h.31C252.1,372.84,251.7,372,251.39,371Z"/><path class="cls-10" d="M261.29,387.92a124.25,124.25,0,0,0-14,7c-4.74,2.8-2.85,6.64-1.74,9.09s26,6,26,6,.81-.9,2-2.25c.36-3.51.64-6.78.8-9.64A56.64,56.64,0,0,1,261.29,387.92Z"/><path class="cls-10" d="M271.68,422.65l-3.51,0-6.4,0c-6.12,0-12.1.11-15.9.11-6.56,0-8.61,5.25-9.22,9.18-.37,2.36,2.91,6,6.64,8,4.18,2.3,18.93,3.23,25.38,3.53C269.54,437.8,270.66,430.31,271.68,422.65Z"/><path class="cls-10" d="M196.56,449.2s5.08-.8,4.07-4.94c-.29-1.2-.47-2.41-.58-3.15-.29-1.94-1.64-3.32-4.69-4.39s-11.11-3.11-11.11-3.11-8.17-2.73-12.17-.46c-.92.52-2.45,1.48-3.2,2-5,3.63.87,9.7.87,9.7l5.55,1.1,5.33-4,11.78,8.5Z"/><path class="cls-10" d="M152.18,430.91c3.11-.12,7.8-2.25,8.31-8.64s-8.32-8.15-8.32-8.15L130.86,412c.46,5.75,1.1,12.34,2,18.91C138.38,431,149.84,431,152.18,430.91Z"/><path class="cls-10" d="M203.83,378.06a69.61,69.61,0,0,0,9.77-1.22c2-.7.87-4.63-.53-8A70.86,70.86,0,0,1,203.83,378.06Z"/><path class="cls-10" d="M241.55,334.47a64.41,64.41,0,0,0-13.64-4.13c-.36,3.17-.7,6.39-1.12,9.57,1.4-.36,2.85-.76,4.36-1.25C242.61,335,241.55,334.47,241.55,334.47Z"/><ellipse class="cls-14" cx="206.25" cy="284.56" rx="56.46" ry="30.08"/><ellipse class="cls-15" cx="206.25" cy="278.04" rx="56.46" ry="30.08"/><path class="cls-4" d="M290.75,242.7C285.32,216,282.1,184.77,262.9,162c-40.81-48.42-116.69-24-136.79,24-11.32,27.8-30.2,84.09,11.45,97.48C188.5,299.71,303.1,303.4,290.75,242.7Z"/><path class="cls-7" d="M167.09,186c9.83-23.46,33-41.29,58.9-47.72-39.25-10.55-85,12.09-99.88,47.72-11.32,27.8-30.2,84.09,11.45,97.47,23.48,7.49,60.47,12.3,92.33,9.38-19.26-1.54-37.62-5-51.35-9.38C136.89,270.08,155.77,213.79,167.09,186Z"/><path class="cls-15" d="M115.05,193l.35.79a2.64,2.64,0,0,1-.15-.36C115.2,193.34,115.14,193.2,115.05,193Z"/><path class="cls-15" d="M115.43,193.88l0,0-.06-.09A.12.12,0,0,1,115.43,193.88Z"/><path class="cls-15" d="M115.26,193.47a2.64,2.64,0,0,0,.15.36l.06.09C115.56,194.09,115.47,193.9,115.26,193.47Z"/><path class="cls-15" d="M288.94,193l-.35.79a3,3,0,0,0,.14-.36C288.8,193.34,288.86,193.2,288.94,193Z"/><path class="cls-15" d="M288.56,193.88l0,0,.06-.09S288.57,193.86,288.56,193.88Z"/><path class="cls-15" d="M288.74,193.47a3,3,0,0,1-.14.36l-.06.09C288.44,194.09,288.53,193.9,288.74,193.47Z"/><path class="cls-1" d="M322.83,279.55c-2.34-8.7-21.07-21.91-21.07-21.91,26.08,6.76,16.72-8.37,16.72-8.37-4.68-9.34-26.42-16.43-26.42-16.43,28.76-3.22,11.37-14.5,11.37-14.5-16.72-9-40.8-7.41-40.8-7.41,13.71-5.48,15-14.5,15-14.5-1.34-5.8-12.37-6.44-12.37-6.44-1.56.08-3,.23-4.44.43-.47.07-.89.17-1.34.25-.9.16-1.81.31-2.64.52-.51.12-1,.28-1.46.42-.71.2-1.43.4-2.09.64-.49.17-.93.37-1.39.55s-1.2.48-1.76.75-.86.44-1.28.66-1,.54-1.48.83-.78.5-1.15.75-.85.58-1.25.88-.7.54-1,.82-.7.6-1,.9-.62.58-.91.87c-.13.14-.29.27-.42.4l0,0a24.9,24.9,0,0,0-6.11,10.6c8.88,9.37-.86,15.25-3.38,16.25s-12.33,12.82-31.88,12.82-29.4-11.83-31.88-12.82-12.26-6.88-3.38-16.25a24.9,24.9,0,0,0-6.11-10.6l0,0c-.13-.14-.28-.27-.42-.4q-.43-.44-.91-.87c-.33-.3-.68-.6-1-.9s-.67-.55-1-.82-.82-.59-1.25-.88-.75-.51-1.15-.75-1-.56-1.48-.83-.83-.45-1.28-.66-1.16-.5-1.76-.75-.91-.38-1.39-.55c-.66-.23-1.38-.43-2.09-.64-.49-.14-1-.29-1.46-.42-.84-.2-1.74-.36-2.64-.52-.45-.08-.87-.18-1.34-.25-1.41-.2-2.88-.35-4.44-.43,0,0-11,.65-12.37,6.44,0,0,1.34,9,15,14.5,0,0-24.08-1.61-40.8,7.41,0,0-17.39,11.27,11.37,14.5,0,0-21.74,7.09-26.42,16.43,0,0-9.36,15.14,16.72,8.37,0,0-18.73,13.21-21.07,21.91,0,0-4,10.95,18.06-1.29,0,0-8.36,10.31-11.37,20s2.82,10.76,12.78,5.06c0,0-8.43,10.73-9.1,18.46s1.41,23.71,20.1-2.64c0,0-5.05,20.68-1,29,0,0,5.35,4.51,8.7,1.29s6-10.31,5.69-14.17c0,0,4,19.33,16.72,24.48,0,0,9.36,2.58,11-14.49,0,0,5.35,11.92,15.05,15.46s14.71-1.93,14.38-14.5c0,0,4.38,19.12,20.69,19.12s22.42-19.12,22.42-19.12c-.33,12.56,4.69,18,14.38,14.5s15.05-15.46,15.05-15.46c1.67,17.07,11,14.49,11,14.49C275,354.6,279,335.28,279,335.28c-.33,3.86,2.34,10.95,5.69,14.17s8.7-1.29,8.7-1.29c4-8.37-1-29-1-29,18.69,26.35,20.77,10.37,20.1,2.64s-9.1-18.46-9.1-18.46c10,5.7,15.79,4.61,12.78-5.06s-11.37-20-11.37-20C326.85,290.5,322.83,279.55,322.83,279.55Z"/><circle class="cls-16" cx="140.32" cy="197.14" r="30.93"/><path class="cls-8" d="M208,283.45c-4.07-4.87-37.3,19-41.88,22.22a257.93,257.93,0,0,0-41.33,36.89,14.19,14.19,0,0,0-1.74,5.57,14.81,14.81,0,0,0,2.44,9.4c2.63,10.44,6.1,13.6,9.05,14.27,0,0,1.4.32,10.66-1.64h0c1.92-3.35,8.32-13.18,8.32-13.18S218.35,295.83,208,283.45Z"/><circle class="cls-16" cx="261.8" cy="196.4" r="30.94"/><path class="cls-17" d="M261.8,217.37a30.93,30.93,0,0,1-30.5-26,30.95,30.95,0,1,0,61,0A30.93,30.93,0,0,1,261.8,217.37Z"/><path class="cls-4" d="M202.87,298.94a10.53,10.53,0,0,1-13.64,6l-7-2.77a10.53,10.53,0,0,1-6-13.64h0a10.52,10.52,0,0,1,13.64-6l7.05,2.77a10.53,10.53,0,0,1,6,13.64Z"/><path class="cls-17" d="M140.32,218.1a30.93,30.93,0,0,1-30.5-26,30.95,30.95,0,1,0,61,0A30.93,30.93,0,0,1,140.32,218.1Z"/><circle class="cls-1" cx="155.43" cy="183.76" r="7.22"/><path class="cls-4" d="M109.72,201.44a30.9,30.9,0,0,0,61,1.42C150.52,205.93,130.22,206,109.72,201.44Z"/><circle class="cls-1" cx="280.92" cy="185.16" r="7.22"/><path class="cls-10" d="M204.82,424.54l1.77-.63h0c1.17-1.12,2.51-2.27,4-3.46l6.34-8.42,9.31-2.32,2.84-1.73-4.2-5.1s-31-4-34.59-3.25.78,14.94,1,16.59S204.82,424.54,204.82,424.54Z"/><path class="cls-18" d="M288.86,153.65c-4-3.24-9.12-4-14.56-3.26a6.27,6.27,0,0,0-9.07-7.59,35.39,35.39,0,0,0-9.54,7.63,6.58,6.58,0,0,0-5.68-3.82c-11-1-18.73,14.7-20.51,23.5-.8,4,2.24,7.37,6.15,7.77a18.72,18.72,0,0,0,6.85-1c14.22-3.94,32.2-6,45.09-13.31C290.81,161.72,292.07,156.23,288.86,153.65Z"/><path class="cls-18" d="M115.84,135.68c4-3.24,9.12-4,14.56-3.26a6.27,6.27,0,0,1,9.07-7.59,35.39,35.39,0,0,1,9.54,7.63,6.58,6.58,0,0,1,5.68-3.82c11-1,18.73,14.7,20.51,23.5.8,4-2.24,7.37-6.15,7.77a18.72,18.72,0,0,1-6.85-1c-14.22-3.94-32.2-6-45.09-13.31C113.89,143.75,112.64,138.26,115.84,135.68Z"/><path class="cls-1" d="M180.1,389a.85.85,0,0,1-.43-.94q-.06-.63.65,0c.25.33-.06,1.31-.19,1.61a2.76,2.76,0,0,1-2.14,1.58c-.88.15-.51,1.5.37,1.34a4.17,4.17,0,0,0,3.38-3.53c.17-1.31-.71-3.69-2.46-2.85-1.37.66-1.29,3-.25,3.9s3-.07,2.42-1.51c-.33-.82-1.68-.46-1.34.37Z"/><path class="cls-1" d="M170.4,383a4.42,4.42,0,0,0,1.37-3.85c-.14-1-.82-2.77-2.12-2.47s-1,1.84-.56,2.66a4.79,4.79,0,0,0,3.71,2.27c.89.1.88-1.29,0-1.39a3.36,3.36,0,0,1-1.9-.84,2.91,2.91,0,0,1-.61-.74c-.25-.49-.29-.71-.11,0a3.12,3.12,0,0,1-.76,3.42c-.65.62.33,1.6,1,1Z"/><path class="cls-1" d="M171.47,363.39c-.2,1.28-.36,2.74.69,3.71a1.93,1.93,0,0,0,2.57.22,1.79,1.79,0,0,0,.28-2.22c-.71-1-1.9-.45-2.66.17s.3,1.55,1,1c-.6.49-.55-2.33-.52-2.5.14-.88-1.2-1.25-1.34-.37Z"/><path class="cls-1" d="M201.38,367.92c-.2,1.28-.36,2.74.69,3.71a1.93,1.93,0,0,0,2.57.22,1.79,1.79,0,0,0,.28-2.22c-.71-1-1.9-.45-2.66.17s.3,1.55,1,1c-.6.49-.55-2.33-.52-2.5.14-.88-1.2-1.25-1.34-.37Z"/><path class="cls-1" d="M263.53,367.19c-.2,1.28-.36,2.74.69,3.71a1.93,1.93,0,0,0,2.57.22,1.79,1.79,0,0,0,.28-2.22c-.71-1-1.9-.45-2.66.17s.3,1.55,1,1c-.6.49-.55-2.33-.52-2.5.14-.88-1.2-1.25-1.34-.37Z"/><path class="cls-1" d="M169,386c0,1.36.23,2.79,1.64,3.35a2,2,0,0,0,2.69-1.07,1.71,1.71,0,1,0-3.2-1.19.7.7,0,0,0,1.34.37v.67a.91.91,0,0,1-.89-.69,2.83,2.83,0,0,1-.2-1.45.7.7,0,0,0-1.39,0Z"/><path class="cls-1" d="M181.71,368.42c0,1.36.23,2.79,1.64,3.35a2,2,0,0,0,2.69-1.07,1.71,1.71,0,1,0-3.2-1.19.7.7,0,0,0,1.34.37v.67a.91.91,0,0,1-.89-.69,2.83,2.83,0,0,1-.2-1.45.7.7,0,0,0-1.39,0Z"/><path class="cls-1" d="M179.8,361.39c0,1.36.23,2.79,1.64,3.35a2,2,0,0,0,2.69-1.07,1.71,1.71,0,1,0-3.2-1.19.7.7,0,0,0,1.34.37v.67a.91.91,0,0,1-.89-.69,2.83,2.83,0,0,1-.2-1.45.7.7,0,0,0-1.39,0Z"/><path class="cls-1" d="M174.23,375c.57-1.21,1-2.55,0-3.68a2.06,2.06,0,0,0-2.88-.34c-2,1.61.73,4.39,2.27,2.54.57-.68-.41-1.67-1-1q.89-.57.81.48a3.53,3.53,0,0,1-.44,1.28c-.38.81.82,1.51,1.2.7Z"/><path class="cls-1" d="M192.47,382.45c.57-1.21,1-2.55,0-3.68a2.06,2.06,0,0,0-2.88-.34c-2,1.61.73,4.39,2.27,2.54.57-.68-.41-1.67-1-1q.89-.57.81.48a3.53,3.53,0,0,1-.44,1.28c-.38.81.82,1.51,1.2.7Z"/><path class="cls-1" d="M165.46,380c.57-1.21,1-2.55,0-3.68a2.06,2.06,0,0,0-2.88-.34c-2,1.61.73,4.39,2.27,2.54.57-.68-.41-1.67-1-1q.89-.57.81.48a3.53,3.53,0,0,1-.44,1.28c-.38.81.82,1.51,1.2.7Z"/><path class="cls-1" d="M190.29,369.84c0,1.36.23,2.79,1.64,3.35a2,2,0,0,0,2.69-1.07,1.71,1.71,0,1,0-3.2-1.19.7.7,0,0,0,1.34.37V372a.91.91,0,0,1-.89-.69,2.83,2.83,0,0,1-.2-1.45.7.7,0,0,0-1.39,0Z"/><path class="cls-1" d="M254.32,371.46c0,1.36.23,2.79,1.64,3.35a2,2,0,0,0,2.69-1.07,1.71,1.71,0,1,0-3.2-1.19.7.7,0,0,0,1.34.37v.67a.91.91,0,0,1-.89-.69,2.83,2.83,0,0,1-.2-1.45.7.7,0,0,0-1.39,0Z"/><path class="cls-1" d="M163.81,394.54c.21,1.4.59,2.93,2,3.57a2,2,0,0,0,2.77-.9,1.67,1.67,0,0,0-.78-2.3c-1.29-.58-2.42.4-3.18,1.34-.56.69.42,1.68,1,1a5.26,5.26,0,0,1,.55-.64l.67-.44q-.05,1.24-.68.43c-.78-.47-.86-1.6-1-2.42s-1.48-.51-1.34.37Z"/><path class="cls-1" d="M161.42,371.92c.74-1.38,1.23-3,.43-4.51-.47-.85-1.8-2-2.76-1.18s-.33,2.19.25,2.93a5.2,5.2,0,0,0,4.63,1.63c.89-.06.9-1.45,0-1.39s-3.45,0-3.75-1.42c-.19-.87.65.82.66,1a4.13,4.13,0,0,1-.66,2.3c-.42.79.78,1.49,1.2.7Z"/><path class="cls-1" d="M152.35,376.3a2.42,2.42,0,0,1-1,1q.16-1.11.48-.14c.55.8,0,1.56-.58,2.19s.38,1.65,1,1c1-1.11,1.75-2.71.8-4.09a2,2,0,0,0-3-.51,1.71,1.71,0,0,0,.16,2.77c1.37.77,2.62-.42,3.29-1.51.47-.77-.73-1.47-1.2-.7Z"/><path class="cls-1" d="M180.43,376.82a2.42,2.42,0,0,1-1,1q.16-1.11.48-.14c.55.8,0,1.56-.58,2.19s.38,1.65,1,1c1-1.11,1.75-2.71.8-4.09a2,2,0,0,0-3-.51,1.71,1.71,0,0,0,.16,2.77c1.37.77,2.62-.42,3.29-1.51.47-.77-.73-1.47-1.2-.7Z"/><path class="cls-1" d="M159,389c1.33-1,2.5-2.47,2.07-4.24-.28-1.16-1.67-2.53-2.7-1.22-2.08,2.63,1.9,6.62,4.44,4.13.64-.63-.34-1.61-1-1-1.19,1.17-2.75-.39-2.51-1.74s.45.75.41.93a3.3,3.3,0,0,1-1.44,1.92c-.71.53,0,1.74.7,1.2Z"/><path class="cls-1" d="M260.87,364l-.05-.09-.11.84.11-.11-.68.18.13,0-.51-.67c0,.35-1.18.89-1.35.93a.85.85,0,0,1-1.08-.2.79.79,0,0,1-.41-.7l.55.17a2.82,2.82,0,0,1,.06,1.25,3,3,0,0,1-.76,1.48c-.59.67.39,1.66,1,1,1.15-1.3,1.74-3.45.65-5a1.55,1.55,0,0,0-2.8.51,2.39,2.39,0,0,0,2,2.93c1.24.17,3.66-.85,3.55-2.36a.71.71,0,0,0-.51-.67.87.87,0,0,0-.92.26.71.71,0,0,0-.11.84l.05.09c.47.76,1.68.06,1.2-.7Z"/><path class="cls-1" d="M262.48,379.91q-.58.93-1.22-.1a1.92,1.92,0,0,1,.17-1.26c.58-1,1.24-.22,1.39.58.29,1.56-.92,3.12-2.58,2.5-.84-.31-1.2,1-.37,1.34a3.28,3.28,0,0,0,4.32-2.68c.27-1.51-.63-4.41-2.71-3.7-1.58.54-2.14,3.13-1.16,4.37a2,2,0,0,0,3.5-.69c.17-.88-1.17-1.25-1.34-.37Z"/><g class="cls-19"><path class="cls-20" d="M168.44,235.14c2.48,1,12.33,12.82,31.88,12.82s29.4-11.83,31.88-12.82,15.75-7.76,7-17.07a8.77,8.77,0,0,1-2,4.82,14,14,0,0,1-5.05,3.67c-2.48,1-12.33,12.82-31.88,12.82s-29.4-11.83-31.88-12.82a15.72,15.72,0,0,1-4.21-2.71c-1.54-1.52-2.23-3.41-2.91-4C152.61,229.17,165.93,234.14,168.44,235.14Z"/></g><path class="cls-4" d="M334,293.59a4,4,0,0,1-3.95-3.95V265.18a3.95,3.95,0,0,1,7.9,0v24.46A4,4,0,0,1,334,293.59Z"/></g><path class="cls-21" d="M426.35,68.44c1.94,8.52-1.76,16.28-5.43,21.5,2.84-24.11-16.05-37.06-16.05-37.06-22.55-20.44-7-36.89-7-36.89C357.35,30.89,360,76,360,76a23.79,23.79,0,0,1-3-25.33c-34.37,35.11-6.44,60.22-6.44,60.22a62.41,62.41,0,0,1-14.5-17.11c1.07,42.44,50.74,47.11,50.74,47.11C461.25,110.21,426.35,68.44,426.35,68.44Z"/><path class="cls-22" d="M405.42,114.79c1.6-13.61-9.06-20.92-9.06-20.92-12.73-11.54-3.94-20.82-3.94-20.82-22.89,8.4-21.37,33.87-21.37,33.87a13.43,13.43,0,0,1-1.67-14.3c-19.4,19.82-3.64,34-3.64,34a35.25,35.25,0,0,1-8.18-9.66,23.82,23.82,0,0,0,8.5,18.25,76.63,76.63,0,0,0,20.82,5.68,144.21,144.21,0,0,0,18.94-9.35c14.66-14.53,2.67-28.88,2.67-28.88C409.58,107.46,407.5,111.84,405.42,114.79Z"/><path class="cls-23" d="M398.06,135.78c7.59-8.31.91-16.31.91-16.31a9.07,9.07,0,0,1-1.8,7.14,13.58,13.58,0,0,0-5.33-12.31c-7.49-6.79-2.32-12.26-2.32-12.26C376,107,376.93,122,376.93,122a7.91,7.91,0,0,1-1-8.42c-11.42,11.67-2.14,20-2.14,20a20.75,20.75,0,0,1-4.82-5.69,14,14,0,0,0,4.13,9.94,73,73,0,0,0,13.76,3C390.93,139.21,394.63,137.51,398.06,135.78Z"/><path class="cls-24" d="M164.64,282.1c7.7-1.72,15.07-4.71,22.74-6.58a81.37,81.37,0,0,1,49.5,3.63"/><ellipse class="cls-21" cx="330.03" cy="167.32" rx="8.51" ry="7.66"/><ellipse class="cls-21" cx="347.26" cy="150.14" rx="13.22" ry="12.21"/></g></g></svg>